<?xml version="1.0" encoding="utf-8"?>
<!-- Generator: Adobe Illustrator 16.0.0, SVG Export Plug-In . SVG Version: 6.00 Build 0)  -->
<!DOCTYPE svg PUBLIC "-//W3C//DTD SVG 1.1//EN" "http://www.w3.org/Graphics/SVG/1.1/DTD/svg11.dtd">
<svg version="1.1" id="Layer_1" xmlns="http://www.w3.org/2000/svg" xmlns:xlink="http://www.w3.org/1999/xlink" x="0px" y="0px"
	 width="500px" height="83.799px" viewBox="0 0 500 83.799" enable-background="new 0 0 500 83.799" xml:space="preserve">
<defs>
	<filter id="Adobe_OpacityMaskFilter" filterUnits="userSpaceOnUse" x="-32.836" y="-0.101" width="565.672" height="84">
		<feColorMatrix  type="matrix" values="1 0 0 0 0  0 1 0 0 0  0 0 1 0 0  0 0 0 1 0"/>
	</filter>
</defs>
<mask maskUnits="userSpaceOnUse" x="-32.836" y="-0.101" width="565.672" height="84" id="SVGID_1_">
	<g filter="url(#Adobe_OpacityMaskFilter)">
		<g>
			<path fill="#FFFFFF" d="M56.618,26.844l-11.119,5.192c-1.096-2.476-2.74-5.512-6.89-5.512c-2.585,0-4.308,1.597-4.308,3.756
				c0,7.585,22.865,6.788,22.865,23.879c0,10.303-7.204,17.731-19.186,17.731c-12.294,0-17.228-9.106-18.636-13.339l11.197-5.669
				c1.488,3.272,4.463,6.229,8.222,6.229c3.212,0,4.855-1.438,4.855-3.914c0-7.427-22.71-6.789-22.71-24.679
				c0-10.064,7.126-16.612,18.012-16.612C50.668,13.906,55.21,22.612,56.618,26.844z"/>
			<path fill="#FFFFFF" d="M70.156,49.366V14.944h13.39v34.422c0,6.071,3.602,9.823,9.553,9.823c6.029,0,9.396-3.752,9.396-9.901
				V14.944h13.391v34.344c0,13.097-8.379,22.522-22.865,22.522C78.298,71.811,70.156,62.706,70.156,49.366z"/>
			<path fill="#FFFFFF" d="M165.204,26.844l-11.12,5.192c-1.095-2.476-2.739-5.512-6.891-5.512c-2.584,0-4.307,1.597-4.307,3.756
				c0,7.585,22.866,6.788,22.866,23.879c0,10.303-7.206,17.731-19.187,17.731c-12.294,0-17.227-9.106-18.636-13.339l11.197-5.669
				c1.488,3.272,4.463,6.229,8.222,6.229c3.212,0,4.855-1.438,4.855-3.914c0-7.427-22.709-6.789-22.709-24.679
				c0-10.064,7.126-16.612,18.011-16.612C159.252,13.906,163.795,22.612,165.204,26.844z"/>
			<path fill="#FFFFFF" d="M225.255,70.853h-13.391V48.968h-19.576v21.885h-13.392V14.944h13.392v21.723h19.576V14.944h13.391
				V70.853z"/>
			<path fill="#FFFFFF" d="M239.021,19.177c0-4.232,3.134-7.268,7.281-7.268c4.153,0,7.362,3.035,7.362,7.268
				c0,4.153-3.209,7.188-7.362,7.188C242.154,26.365,239.021,23.33,239.021,19.177z M252.959,70.853h-13.077V34.171h13.077V70.853z"
				/>
			<path fill="#FFFFFF" d="M280.593,36.588v34.264H267.44V14.944h13.623l20.046,34.661V14.944h13.156v55.908h-13.31L280.593,36.588z
				"/>
			<path fill="#FFFFFF" d="M345.965,14.944c17.621,0,28.897,10.461,28.897,27.953c0,17.493-11.276,27.956-28.897,27.956h-16.129
				V14.944H345.965z M343.226,26.765v32.267h2.739c9.007,0,14.957-5.433,14.957-16.135s-5.95-16.132-14.957-16.132H343.226z"/>
			<path fill="#FFFFFF" d="M387.845,70.853V14.944h34.46v12.221h-21.069v9.344h18.719v12.141h-18.719v9.982h21.697v12.221H387.845z"
				/>
			<path fill="#FFFFFF" d="M460.391,32.036l9.241-17.091h15.737l-17.146,27.713l17.383,28.195h-14.879l-10.336-17.97l-10.336,17.97
				h-14.879l17.386-28.195l-17.149-27.713h15.74L460.391,32.036z"/>
		</g>
	</g>
</mask>
<linearGradient id="SVGID_2_" gradientUnits="userSpaceOnUse" x1="-36.1973" y1="202.2305" x2="434.3903" y2="-61.3976">
	<stop  offset="0" style="stop-color:#786AAF"/>
	<stop  offset="0.4641" style="stop-color:#ABDBE8"/>
	<stop  offset="0.4758" style="stop-color:#ABDBE7"/>
	<stop  offset="0.8198" style="stop-color:#A9D9CA"/>
	<stop  offset="0.9945" style="stop-color:#A8D9BE"/>
</linearGradient>
<rect x="-32.836" y="-0.101" mask="url(#SVGID_1_)" fill="url(#SVGID_2_)" width="565.672" height="84"/>
</svg>
